<?xml version="1.0" standalone="no"?>
<!DOCTYPE svg PUBLIC "-//W3C//DTD SVG 20010904//EN"
 "http://www.w3.org/TR/2001/REC-SVG-20010904/DTD/svg10.dtd">
<svg version="1.0" xmlns="http://www.w3.org/2000/svg"
 width="948.000000pt" height="1280.000000pt" viewBox="0 0 948.000000 1280.000000"
 preserveAspectRatio="xMidYMid meet">
<metadata>
Created by potrace 1.15, written by Peter Selinger 2001-2017
</metadata>
<g transform="translate(0.000000,1280.000000) scale(0.100000,-0.100000)"
fill="#000000" stroke="none">
<path d="M4231 12793 c-107 -2 -200 -8 -206 -13 -6 -5 -103 -14 -216 -20 -112
-6 -223 -15 -247 -20 -23 -6 -59 -10 -80 -10 -20 0 -55 -5 -76 -11 -22 -6 -72
-15 -110 -20 -177 -22 -225 -32 -261 -55 -11 -7 -39 -16 -63 -20 -23 -4 -45
-11 -48 -15 -3 -5 -10 -7 -15 -3 -5 3 -15 1 -22 -4 -7 -5 -31 -13 -54 -17 -22
-3 -49 -13 -60 -20 -10 -8 -23 -15 -30 -15 -7 0 -37 -11 -67 -25 -30 -14 -58
-25 -63 -25 -24 0 -366 -181 -413 -218 -30 -25 -62 -47 -70 -50 -18 -7 -148
-111 -174 -141 -11 -11 -24 -21 -30 -21 -6 0 -38 -29 -72 -65 -34 -36 -66 -65
-71 -65 -11 0 -113 -102 -113 -113 0 -5 -16 -23 -35 -41 -19 -19 -35 -36 -35
-40 0 -3 -26 -37 -58 -75 -32 -39 -65 -89 -72 -113 -13 -41 -25 -68 -69 -155
-10 -21 -22 -53 -26 -70 -3 -18 -10 -33 -15 -33 -4 0 -11 -12 -15 -27 -15 -61
-144 -323 -162 -330 -7 -3 -13 -11 -13 -18 0 -7 -7 -19 -17 -26 -9 -8 -22 -29
-30 -48 -8 -18 -32 -57 -54 -86 -21 -28 -39 -56 -39 -62 0 -5 -24 -36 -53 -69
-78 -88 -184 -304 -197 -404 -21 -162 -8 -302 35 -385 38 -74 50 -94 69 -113
63 -66 69 -80 62 -144 -3 -34 -10 -66 -15 -72 -14 -17 -41 -98 -41 -124 0 -12
-4 -30 -9 -40 -5 -9 -15 -57 -22 -105 -7 -48 -16 -90 -21 -93 -13 -8 -10 -158
4 -172 9 -9 9 -17 1 -34 -6 -13 -14 -40 -16 -60 -3 -20 -12 -52 -20 -70 -8
-18 -17 -41 -21 -50 -3 -10 -15 -18 -28 -18 -36 0 -100 -42 -121 -77 -10 -18
-22 -56 -27 -85 -18 -120 -51 -304 -57 -318 -8 -17 -8 -19 -22 -212 -5 -75
-14 -146 -21 -158 -6 -11 -14 -52 -17 -91 -3 -38 -10 -72 -14 -75 -5 -2 -6
-40 -2 -84 4 -60 2 -91 -11 -131 -11 -32 -17 -81 -17 -128 1 -42 -2 -121 -6
-176 l-8 -100 -55 -11 c-30 -5 -62 -13 -70 -17 -8 -3 -49 -11 -90 -16 -41 -6
-105 -18 -141 -28 l-66 -16 -8 -283 c-7 -288 2 -1011 14 -1029 3 -5 14 -116
23 -245 16 -216 56 -555 70 -590 4 -8 12 -62 19 -120 7 -58 15 -109 19 -115 4
-5 13 -55 19 -110 7 -55 17 -113 22 -130 6 -16 19 -84 29 -150 32 -203 50
-299 60 -320 5 -11 14 -47 20 -80 6 -33 15 -69 20 -80 4 -11 16 -63 26 -115 9
-52 20 -99 24 -105 4 -5 11 -30 15 -55 4 -25 13 -58 20 -75 8 -16 19 -50 25
-75 7 -25 15 -49 19 -55 5 -5 16 -39 26 -75 9 -36 21 -69 25 -75 4 -5 13 -32
19 -60 7 -27 16 -54 21 -60 4 -5 11 -26 15 -45 4 -19 13 -46 20 -60 23 -44 53
-114 68 -160 8 -25 22 -59 30 -75 23 -47 82 -186 82 -195 0 -3 16 -36 34 -75
18 -38 48 -101 66 -140 59 -126 146 -299 176 -350 16 -27 36 -64 44 -82 8 -17
18 -33 22 -35 9 -3 35 -47 59 -97 9 -19 27 -49 40 -66 13 -18 24 -37 24 -43 0
-6 3 -12 8 -14 11 -5 72 -95 72 -107 0 -6 9 -15 20 -21 11 -6 20 -15 20 -21 0
-6 11 -25 25 -43 14 -18 25 -38 25 -44 0 -7 5 -12 10 -12 6 0 14 -9 18 -19 19
-52 601 -641 632 -641 6 0 36 -20 68 -45 31 -25 63 -45 70 -45 6 0 12 -4 12
-8 0 -4 17 -14 38 -21 20 -8 39 -17 42 -20 8 -9 158 -81 170 -81 5 0 10 -4 10
-10 0 -5 8 -10 17 -10 9 0 35 -9 57 -19 47 -22 119 -54 126 -55 3 -1 10 -4 15
-7 6 -4 35 -12 65 -19 30 -6 69 -18 85 -25 17 -7 47 -16 68 -20 20 -4 39 -11
42 -15 3 -5 31 -14 63 -20 31 -7 62 -16 67 -20 6 -4 46 -15 90 -24 44 -9 89
-21 100 -26 19 -9 85 -22 305 -59 58 -10 112 -20 120 -23 8 -4 80 -13 160 -22
80 -9 163 -18 185 -21 22 -3 146 -12 275 -20 129 -8 251 -20 270 -27 48 -16
692 -17 711 -1 9 7 106 16 254 22 132 7 256 16 275 21 19 6 91 17 159 25 69 9
130 19 135 24 6 5 49 14 96 22 47 7 87 16 90 19 3 3 45 11 94 18 49 6 96 18
105 25 9 7 45 19 81 26 36 7 67 16 70 21 3 4 32 13 65 20 33 7 65 16 70 20 6
5 33 14 60 21 28 7 52 15 55 18 8 9 137 71 148 71 19 0 207 103 247 135 22 18
72 54 110 80 114 78 345 300 515 496 58 66 113 129 123 140 9 10 17 22 17 25
0 5 43 69 73 109 13 18 55 78 84 123 15 23 45 65 66 94 20 28 37 56 37 62 0 6
14 29 30 50 17 22 30 43 30 48 0 4 16 31 35 58 19 27 35 54 35 58 0 5 13 26
30 48 16 21 30 44 30 51 0 6 3 13 8 15 9 4 72 132 72 148 0 6 9 28 19 48 11
20 30 62 44 92 13 30 38 84 55 120 17 36 38 87 47 115 9 27 20 54 24 60 4 5
13 28 20 50 7 22 21 59 32 82 10 24 19 49 19 57 0 8 4 17 9 20 5 4 17 32 27
64 10 31 23 66 31 77 7 11 13 26 13 35 0 8 6 27 14 42 8 15 17 42 21 60 4 18
13 47 20 63 8 17 21 57 31 90 9 33 20 65 24 70 4 6 13 34 20 63 6 28 16 54 20
57 4 3 13 35 20 72 7 38 16 73 20 78 4 6 15 53 24 105 10 52 21 102 25 110 5
9 14 48 21 88 7 39 16 72 20 72 4 0 13 37 19 83 7 45 16 91 21 102 5 11 16 61
25 110 19 107 21 115 28 135 3 8 11 53 18 100 6 47 15 90 19 95 5 6 13 80 20
165 7 85 16 164 20 175 9 20 40 392 40 473 0 23 4 50 9 60 10 18 31 333 31
463 0 43 5 80 11 86 17 17 17 929 1 945 -7 7 -12 42 -12 83 0 127 -21 450 -31
468 -6 11 -10 47 -9 80 1 34 0 69 -3 77 -3 8 -11 94 -18 190 -6 96 -15 180
-19 185 -4 6 -13 82 -20 170 -6 88 -15 165 -20 170 -4 6 -13 48 -20 95 -7 47
-18 108 -25 135 -8 28 -19 86 -26 130 -6 44 -15 85 -19 90 -4 6 -13 48 -20 95
-6 47 -15 90 -19 95 -5 6 -14 39 -21 75 -6 36 -15 70 -20 75 -4 6 -15 53 -25
105 -10 52 -21 100 -25 105 -4 6 -13 40 -20 78 -7 37 -16 67 -20 67 -5 0 -11
17 -15 38 -3 22 -12 51 -20 65 -7 15 -21 59 -31 99 -9 40 -20 78 -24 83 -4 6
-13 33 -20 60 -8 28 -20 61 -27 75 -7 14 -13 32 -13 40 0 9 -6 24 -14 35 -7
11 -19 38 -26 60 -7 22 -18 46 -24 54 -6 8 -10 16 -9 17 2 4 -19 58 -42 109
-7 17 -17 42 -20 58 -4 15 -11 27 -15 27 -4 0 -11 11 -14 25 -3 13 -11 37 -18
52 -6 15 -12 30 -13 33 -1 3 -9 22 -18 44 -9 21 -17 45 -17 52 0 8 -4 14 -8
14 -4 0 -14 17 -21 38 -7 20 -22 57 -34 82 -11 25 -26 59 -33 75 -21 49 -83
178 -96 200 -7 11 -25 39 -40 62 -15 23 -28 46 -28 52 0 6 -4 11 -8 11 -5 0
-16 15 -26 33 -41 77 -48 87 -57 87 -5 0 -9 6 -9 13 0 7 -13 31 -30 53 -16 21
-30 43 -30 47 0 4 -18 32 -40 62 -22 30 -40 59 -40 64 0 6 -9 16 -20 23 -11 7
-20 17 -20 22 0 5 -11 24 -25 42 -14 18 -25 38 -25 44 0 6 -7 13 -15 16 -8 4
-15 11 -15 18 0 13 -107 148 -126 159 -8 4 -14 13 -14 18 0 22 -183 219 -315
339 -75 69 -141 127 -147 129 -6 2 -18 10 -27 18 -48 42 -131 103 -140 103 -6
0 -15 9 -21 20 -6 11 -16 20 -22 20 -7 0 -23 11 -37 24 -31 30 -329 182 -374
192 -18 3 -37 10 -43 15 -6 5 -42 16 -80 25 -38 8 -73 19 -79 23 -16 13 -101
31 -144 31 -22 0 -42 4 -45 8 -3 5 -58 12 -123 16 -149 8 -323 24 -388 36 -27
5 -158 14 -290 20 -132 7 -244 15 -250 20 -11 9 -873 19 -1174 13z m1948
-2839 c33 -4 61 -11 61 -17 0 -5 -15 -6 -37 -2 -21 5 -83 11 -138 15 l-100 7
76 1 c42 1 104 -1 138 -4z m-244 -24 c-3 -5 -10 -10 -16 -10 -5 0 -9 5 -9 10
0 6 7 10 16 10 8 0 12 -4 9 -10z m380 0 c8 -13 -25 -13 -45 0 -12 8 -9 10 12
10 15 0 30 -4 33 -10z m115 -26 c46 -11 138 -54 283 -131 15 -8 27 -18 27 -22
0 -4 9 -12 21 -17 70 -32 398 -360 439 -440 8 -16 29 -50 47 -76 18 -26 33
-51 33 -54 0 -4 16 -28 35 -54 19 -26 35 -53 35 -59 0 -6 5 -11 10 -11 6 0 10
-5 10 -12 0 -6 10 -25 23 -42 35 -48 172 -331 200 -416 24 -70 57 -163 67
-185 5 -11 14 -44 20 -74 6 -30 14 -59 19 -65 4 -6 14 -40 21 -76 6 -36 15
-69 20 -75 4 -5 15 -44 24 -85 10 -41 21 -79 26 -85 4 -5 14 -39 20 -75 7 -36
16 -69 20 -75 4 -5 13 -50 20 -100 7 -49 17 -95 21 -101 5 -6 16 -87 25 -180
9 -93 20 -178 24 -189 17 -40 30 -408 28 -805 l-2 -405 -7 510 c-4 281 -12
551 -18 600 -6 50 -20 162 -30 250 -20 175 -38 271 -82 445 -54 210 -60 234
-67 245 -7 10 -14 36 -62 225 -12 47 -27 103 -35 125 -27 81 -84 231 -105 280
-33 76 -134 279 -145 291 -5 6 -21 30 -35 53 -14 23 -62 98 -107 168 -45 69
-85 134 -89 145 -7 23 -339 358 -355 358 -6 0 -36 19 -67 43 -47 36 -127 79
-272 147 -8 4 -43 13 -77 20 -34 8 -59 18 -56 23 3 4 12 5 22 1 9 -3 41 -13
71 -20z m-531 12 c-2 -2 -22 -6 -44 -9 -28 -5 -34 -4 -20 3 19 8 73 14 64 6z
m-94 -16 c3 -5 1 -10 -4 -10 -6 0 -11 5 -11 10 0 6 2 10 4 10 3 0 8 -4 11 -10z
m187 -26 c21 -13 40 -24 43 -24 18 0 225 -168 225 -183 0 -5 55 -67 123 -138
67 -71 127 -139 132 -152 6 -12 25 -43 43 -69 17 -26 32 -49 32 -53 0 -3 18
-32 39 -63 21 -31 56 -84 77 -117 21 -33 42 -61 46 -63 5 -2 8 -8 8 -14 0 -9
88 -190 118 -243 14 -25 42 -111 42 -130 0 -8 4 -15 9 -15 4 0 14 -21 21 -47
7 -27 16 -52 21 -58 10 -14 88 -237 108 -310 9 -33 19 -64 23 -70 3 -5 11 -44
17 -85 7 -41 16 -84 21 -95 5 -11 17 -58 25 -105 9 -47 27 -143 41 -215 13
-71 31 -175 39 -230 8 -55 19 -110 25 -123 5 -13 9 -40 9 -60 l-2 -37 -8 40
c-5 22 -17 90 -27 150 -10 61 -21 117 -25 125 -3 8 -11 51 -17 95 -6 44 -15
89 -20 100 -5 11 -16 67 -25 125 -9 57 -20 109 -24 115 -4 5 -13 48 -20 95 -7
47 -16 90 -20 95 -4 6 -13 35 -20 65 -8 30 -22 74 -32 98 -11 23 -22 56 -26
72 -3 17 -10 33 -14 36 -5 3 -9 12 -9 21 0 9 -8 35 -19 57 -10 23 -25 61 -34
86 -37 112 -63 174 -124 295 -85 173 -103 205 -114 205 -5 0 -9 6 -9 13 0 7
-13 31 -30 53 -16 21 -30 42 -30 46 0 5 -16 30 -35 57 -19 26 -35 51 -35 55 0
11 -68 108 -105 151 -220 252 -372 390 -491 444 -48 22 -71 47 -33 36 13 -4
41 -18 61 -31z m373 17 c3 -5 20 -13 38 -16 17 -4 54 -18 80 -31 27 -13 56
-24 66 -24 9 0 30 -11 46 -25 39 -32 150 -105 161 -105 12 0 74 -62 74 -75 0
-7 22 -26 49 -43 46 -30 121 -110 121 -129 0 -5 12 -20 26 -34 38 -35 136
-158 158 -199 23 -42 111 -180 126 -197 5 -7 10 -15 10 -18 0 -4 24 -57 54
-118 30 -62 82 -170 116 -242 33 -71 69 -146 79 -165 11 -20 22 -58 26 -85 4
-28 12 -61 17 -74 7 -20 6 -22 -5 -12 -8 6 -17 34 -21 61 -4 27 -18 72 -31 99
-14 27 -25 52 -25 57 0 8 -52 116 -171 358 -85 171 -88 176 -119 216 -15 19
-40 58 -55 85 -15 28 -36 59 -46 71 -11 11 -19 26 -19 32 0 7 -9 17 -20 24
-11 7 -20 17 -20 22 0 4 -25 35 -56 69 -30 33 -66 77 -80 98 -13 22 -30 39
-38 39 -7 0 -48 35 -92 78 -44 42 -93 84 -109 92 -43 22 -87 52 -113 78 -12
12 -30 22 -40 22 -10 0 -43 12 -73 28 -30 15 -73 33 -96 40 -24 7 -43 17 -43
22 0 13 17 13 25 1z m-685 -51 c0 -5 -7 -10 -15 -10 -8 0 -15 5 -15 10 0 6 7
10 15 10 8 0 15 -4 15 -10z m-90 -40 c0 -5 -4 -10 -10 -10 -5 0 -10 5 -10 10
0 6 5 10 10 10 6 0 10 -4 10 -10z m-85 -91 c5 -5 19 -9 32 -9 21 0 79 -44 169
-131 23 -21 46 -39 52 -39 15 0 206 -192 236 -237 14 -21 45 -64 68 -95 105
-139 123 -168 211 -343 24 -48 62 -103 96 -137 30 -32 52 -61 48 -64 -14 -14
-113 103 -150 176 -70 140 -119 225 -158 276 -21 28 -39 54 -39 59 0 4 -33 46
-72 92 -40 47 -78 93 -83 102 -15 26 -78 91 -88 91 -5 0 -62 48 -127 106 -120
108 -158 134 -190 134 -10 0 -28 9 -41 21 l-24 20 25 -7 c14 -3 29 -10 35 -15z
m847 -1261 c33 -47 86 -134 124 -203 117 -218 123 -232 164 -395 11 -41 26
-100 35 -130 19 -64 34 -155 44 -257 3 -40 11 -76 16 -81 6 -5 48 -14 95 -21
47 -7 89 -16 95 -19 5 -4 37 -12 70 -18 33 -6 48 -12 33 -13 -15 0 -74 8 -130
20 -57 12 -116 23 -133 26 -49 9 -55 20 -55 94 0 37 -4 71 -10 74 -5 3 -10 24
-10 46 0 46 -16 120 -35 164 -7 17 -16 50 -20 75 -4 25 -11 50 -15 55 -4 6
-13 39 -20 75 -8 36 -33 101 -56 145 -23 44 -55 105 -71 135 -15 30 -31 57
-35 58 -5 2 -8 8 -8 14 0 6 -11 25 -24 42 -13 17 -26 40 -30 51 -4 11 -18 34
-31 50 -22 26 -31 30 -75 30 -27 0 -50 3 -50 8 0 4 24 7 54 7 50 0 57 -3 78
-32z m-142 12 c0 -5 -7 -10 -16 -10 -8 0 -12 5 -9 10 3 6 10 10 16 10 5 0 9
-4 9 -10z m-1650 -20 c0 -5 -5 -10 -11 -10 -5 0 -7 5 -4 10 3 6 8 10 11 10 2
0 4 -4 4 -10z m1590 -4 c0 -3 -4 -8 -10 -11 -5 -3 -10 -1 -10 4 0 6 5 11 10
11 6 0 10 -2 10 -4z m-30 -16 c0 -5 -5 -10 -11 -10 -5 0 -7 5 -4 10 3 6 8 10
11 10 2 0 4 -4 4 -10z m1514 -192 c4 -23 22 -74 40 -113 24 -52 36 -96 45
-169 6 -55 15 -104 20 -110 7 -10 13 -35 42 -191 6 -33 16 -82 21 -110 5 -27
12 -70 15 -95 3 -25 9 -49 13 -55 4 -5 11 -68 15 -140 4 -71 13 -141 20 -155
7 -15 14 -85 17 -170 6 -157 -5 -130 -22 55 -21 237 -28 295 -66 535 -3 19 -9
44 -14 55 -4 11 -13 60 -19 110 -7 49 -16 94 -21 100 -7 9 -20 71 -49 240 -4
23 -17 61 -29 85 -19 40 -52 150 -52 173 0 4 4 6 9 3 4 -3 11 -25 15 -48z
m-3114 -79 c0 -6 -4 -7 -10 -4 -5 3 -10 11 -10 16 0 6 5 7 10 4 6 -3 10 -11
10 -16z m-73 -41 c-3 -7 -5 -2 -5 12 0 14 2 19 5 13 2 -7 2 -19 0 -25z m-40
-130 c-3 -7 -5 -2 -5 12 0 14 2 19 5 13 2 -7 2 -19 0 -25z m-17 -78 c0 -5 -4
-10 -10 -10 -5 0 -10 5 -10 10 0 6 5 10 10 10 6 0 10 -4 10 -10z m-23 -72 c-3
-7 -5 -2 -5 12 0 14 2 19 5 13 2 -7 2 -19 0 -25z m-10 -65 c-3 -10 -5 -4 -5
12 0 17 2 24 5 18 2 -7 2 -21 0 -30z m-10 -70 c-3 -10 -5 -4 -5 12 0 17 2 24
5 18 2 -7 2 -21 0 -30z m-20 -75 c-3 -7 -5 -2 -5 12 0 14 2 19 5 13 2 -7 2
-19 0 -25z m-10 -80 c-2 -13 -4 -5 -4 17 -1 22 1 32 4 23 2 -10 2 -28 0 -40z
m1080 -30 c-3 -8 -6 -5 -6 6 -1 11 2 17 5 13 3 -3 4 -12 1 -19z m-1088 -116
c-2 -96 -6 -86 -11 25 -2 39 0 69 4 67 4 -3 7 -44 7 -92z m1078 56 c-3 -7 -5
-2 -5 12 0 14 2 19 5 13 2 -7 2 -19 0 -25z m1276 -75 c-13 -2 -33 -2 -45 0
-13 2 -3 4 22 4 25 0 35 -2 23 -4z m-76 -9 c-3 -3 -12 -4 -19 -1 -8 3 -5 6 6
6 11 1 17 -2 13 -5z m-37 -8 c0 -11 -19 -15 -25 -6 -3 5 1 10 9 10 9 0 16 -2
16 -4z m-40 -16 c0 -5 -5 -10 -11 -10 -5 0 -7 5 -4 10 3 6 8 10 11 10 2 0 4
-4 4 -10z m-1153 -47 c-3 -10 -5 -2 -5 17 0 19 2 27 5 18 2 -10 2 -26 0 -35z
m-1067 -75 l-5 -73 -3 59 c-3 52 1 86 10 86 2 0 1 -33 -2 -72z m1057 20 c-3
-8 -6 -5 -6 6 -1 11 2 17 5 13 3 -3 4 -12 1 -19z m-10 -60 c-3 -7 -5 -2 -5 12
0 14 2 19 5 13 2 -7 2 -19 0 -25z m-20 -65 c-3 -10 -5 -4 -5 12 0 17 2 24 5
18 2 -7 2 -21 0 -30z m-1040 -50 c-2 -16 -4 -5 -4 22 0 28 2 40 4 28 2 -13 2
-35 0 -50z m1030 -15 c-3 -7 -5 -2 -5 12 0 14 2 19 5 13 2 -7 2 -19 0 -25z
m-1040 -105 c-2 -16 -4 -3 -4 27 0 30 2 43 4 28 2 -16 2 -40 0 -55z m1030 35
c-3 -7 -5 -2 -5 12 0 14 2 19 5 13 2 -7 2 -19 0 -25z m-20 -115 c-2 -16 -4 -3
-4 27 0 30 2 43 4 28 2 -16 2 -40 0 -55z m-1022 -71 c-11 -72 -18 -39 -9 40 6
53 9 63 12 38 2 -19 1 -54 -3 -78z m1032 -677 c5 -11 16 -56 23 -100 7 -44 16
-84 20 -90 4 -5 13 -48 19 -95 7 -47 19 -114 26 -150 7 -36 19 -92 26 -125 7
-33 15 -64 19 -70 4 -5 10 -23 14 -40 7 -29 129 -278 147 -301 5 -7 20 -31 33
-55 36 -70 49 -92 74 -126 12 -17 22 -34 22 -37 0 -3 14 -19 30 -34 17 -16 30
-32 30 -36 0 -16 137 -157 158 -162 12 -4 22 -9 22 -14 0 -4 19 -15 43 -26 23
-10 44 -21 47 -25 7 -9 97 -39 118 -39 10 0 22 -4 28 -10 5 -5 59 -11 119 -13
82 -3 74 -3 -30 -2 -130 1 -144 3 -198 28 -32 15 -62 27 -67 27 -6 0 -10 4
-10 9 0 5 -10 13 -21 16 -37 12 -111 63 -128 89 -9 13 -51 63 -93 111 -43 48
-78 92 -78 97 0 5 -11 24 -24 41 -48 62 -215 394 -245 485 -12 34 -28 99 -36
145 -25 144 -53 289 -75 392 -33 151 -38 235 -37 540 l0 280 7 -345 c4 -201
11 -353 17 -365z m-1040 573 c-3 -8 -6 -5 -6 6 -1 11 2 17 5 13 3 -3 4 -12 1
-19z m-5 -268 c3 -113 1 -187 -3 -165 -7 37 -10 417 -3 385 1 -8 4 -107 6
-220z m1248 121 c19 -7 49 -20 65 -29 25 -14 63 -17 245 -17 118 1 247 4 285
7 56 5 63 4 35 -4 -104 -30 -505 -35 -564 -7 -115 55 -131 65 -134 84 -3 20
-3 20 15 0 10 -12 34 -27 53 -34z m710 -21 c0 -5 -9 -10 -20 -10 -11 0 -20 5
-20 10 0 6 9 10 20 10 11 0 20 -4 20 -10z m-1925 -610 c9 -118 20 -231 25
-250 9 -34 23 -310 14 -280 -2 8 -8 69 -14 135 -15 192 -48 546 -55 593 -3 23
-3 52 2 65 7 19 8 18 10 -13 2 -19 10 -132 18 -250z m82 238 c-3 -8 -6 -5 -6
6 -1 11 2 17 5 13 3 -3 4 -12 1 -19z m23 -159 c0 -5 -4 -9 -10 -9 -5 0 -10 7
-10 16 0 8 5 12 10 9 6 -3 10 -10 10 -16z m697 -33 c26 -12 63 -31 125 -63 21
-11 47 -43 34 -43 -2 0 -32 15 -67 33 -108 54 -125 59 -192 54 -96 -7 -154
-32 -220 -96 -31 -30 -60 -64 -63 -75 -8 -25 -84 -144 -84 -131 1 6 16 37 36
70 19 33 41 74 49 90 24 53 115 131 168 145 26 7 50 17 53 21 8 14 130 10 161
-5z m2860 -93 c-2 -21 -4 -4 -4 37 0 41 2 58 4 38 2 -21 2 -55 0 -75z m-3547
71 c0 -8 -4 -12 -10 -9 -5 3 -10 10 -10 16 0 5 5 9 10 9 6 0 10 -7 10 -16z
m2887 -86 c-3 -8 -6 -5 -6 6 -1 11 2 17 5 13 3 -3 4 -12 1 -19z m-2027 -28 c0
-5 -2 -10 -4 -10 -3 0 -8 5 -11 10 -3 6 -1 10 4 10 6 0 11 -4 11 -10z m2027
-42 c-2 -13 -4 -5 -4 17 -1 22 1 32 4 23 2 -10 2 -28 0 -40z m650 -65 c-2 -21
-4 -6 -4 32 0 39 2 55 4 38 2 -18 2 -50 0 -70z m-720 45 c-3 -8 -6 -5 -6 6 -1
11 2 17 5 13 3 -3 4 -12 1 -19z m50 -55 c-3 -10 -5 -4 -5 12 0 17 2 24 5 18 2
-7 2 -21 0 -30z m-2827 11 c0 -8 -4 -12 -10 -9 -5 3 -10 10 -10 16 0 5 5 9 10
9 6 0 10 -7 10 -16z m2820 -88 c0 -51 -6 -43 -14 19 -4 34 -3 45 4 35 5 -8 10
-33 10 -54z m-60 44 c0 -5 -4 -10 -10 -10 -5 0 -10 5 -10 10 0 6 5 10 10 10 6
0 10 -4 10 -10z m-1900 -20 c0 -5 -4 -10 -10 -10 -5 0 -10 5 -10 10 0 6 5 10
10 10 6 0 10 -4 10 -10z m2617 -52 c-2 -13 -4 -3 -4 22 0 25 2 35 4 23 2 -13
2 -33 0 -45z m-682 32 c3 -5 1 -10 -4 -10 -6 0 -11 5 -11 10 0 6 2 10 4 10 3
0 8 -4 11 -10z m12 -107 c-3 -10 -5 -2 -5 17 0 19 2 27 5 18 2 -10 2 -26 0
-35z m660 -40 c-2 -16 -4 -3 -4 27 0 30 2 43 4 28 2 -16 2 -40 0 -55z m-3297
53 c0 -3 -4 -8 -10 -11 -5 -3 -10 -1 -10 4 0 6 5 11 10 11 6 0 10 -2 10 -4z
m-130 -16 c0 -5 -4 -10 -10 -10 -5 0 -10 5 -10 10 0 6 5 10 10 10 6 0 10 -4
10 -10z m855 0 c3 -5 1 -10 -4 -10 -6 0 -11 5 -11 10 0 6 2 10 4 10 3 0 8 -4
11 -10z m1792 -22 c-3 -8 -6 -5 -6 6 -1 11 2 17 5 13 3 -3 4 -12 1 -19z m69
-5 c-10 -10 -19 5 -10 18 6 11 8 11 12 0 2 -7 1 -15 -2 -18z m36 -28 c-2 -14
-6 -25 -8 -25 -2 0 -4 11 -4 25 0 14 4 25 9 25 4 0 6 -11 3 -25z m-115 -42
c-3 -10 -5 -4 -5 12 0 17 2 24 5 18 2 -7 2 -21 0 -30z m780 -35 c-2 -13 -4 -5
-4 17 -1 22 1 32 4 23 2 -10 2 -28 0 -40z m-680 -10 c-3 -7 -5 -2 -5 12 0 14
2 19 5 13 2 -7 2 -19 0 -25z m-2874 -45 c3 -16 15 -75 26 -133 11 -58 28 -139
39 -180 12 -41 30 -113 42 -160 12 -47 25 -94 30 -105 5 -11 14 -38 20 -60 7
-22 18 -53 25 -70 7 -16 16 -46 20 -65 4 -19 11 -39 15 -45 4 -5 15 -35 24
-66 9 -31 23 -69 31 -85 8 -16 15 -36 15 -44 0 -9 6 -24 14 -35 7 -11 17 -36
21 -55 4 -19 21 -63 36 -98 16 -34 29 -69 29 -77 0 -8 4 -15 8 -15 4 0 14 -17
21 -37 28 -80 162 -336 194 -371 9 -10 17 -23 17 -27 0 -5 9 -18 20 -30 11
-11 47 -54 81 -95 33 -41 71 -88 85 -104 13 -15 24 -32 24 -38 0 -14 241 -248
256 -248 8 0 14 -4 14 -8 0 -5 15 -16 33 -25 48 -25 98 -57 126 -78 13 -10 30
-19 37 -19 8 0 14 -5 14 -10 0 -6 8 -14 18 -17 9 -4 33 -17 52 -30 20 -12 58
-26 85 -29 28 -4 55 -10 60 -14 6 -4 57 -13 115 -20 58 -6 114 -16 125 -21 11
-4 34 -10 50 -13 17 -2 -8 -2 -55 1 -47 3 -92 9 -100 13 -8 4 -58 13 -110 20
-52 6 -114 21 -137 31 -24 10 -45 19 -48 19 -3 0 -27 16 -54 35 -26 19 -52 35
-56 35 -4 0 -29 16 -55 35 -26 19 -53 35 -59 35 -6 0 -11 5 -11 10 0 6 -6 10
-14 10 -8 0 -43 26 -78 58 -35 32 -73 65 -84 73 -17 12 -57 58 -224 257 -11
13 -20 26 -20 28 0 3 -29 40 -65 83 -36 43 -81 107 -100 142 -42 79 -125 248
-154 312 -11 26 -30 66 -40 90 -11 23 -27 67 -37 97 -10 30 -23 64 -30 75 -7
11 -15 36 -19 55 -4 19 -11 40 -16 45 -10 14 -119 341 -119 360 0 8 -4 15 -8
15 -5 0 -14 30 -22 68 -7 37 -17 74 -21 82 -8 15 -39 131 -43 160 -1 9 -5 20
-8 25 -3 6 -11 53 -18 105 -7 52 -17 99 -21 105 -5 5 -9 19 -9 32 0 13 -5 23
-11 23 -5 0 -7 5 -4 10 11 18 23 11 28 -17z m2864 -15 c-3 -7 -5 -2 -5 12 0
14 2 19 5 13 2 -7 2 -19 0 -25z m683 12 c0 -11 -4 -20 -9 -20 -5 0 -7 9 -4 20
3 11 7 20 9 20 2 0 4 -9 4 -20z m-3356 -16 c9 -24 2 -26 -12 -4 -7 11 -8 20
-3 20 5 0 12 -7 15 -16z m2666 -54 c0 -11 -4 -20 -10 -20 -5 0 -10 9 -10 20 0
11 5 20 10 20 6 0 10 -9 10 -20z m667 -12 c-3 -7 -5 -2 -5 12 0 14 2 19 5 13
2 -7 2 -19 0 -25z m-690 -65 c-3 -10 -5 -4 -5 12 0 17 2 24 5 18 2 -7 2 -21 0
-30z m680 0 c-3 -10 -5 -4 -5 12 0 17 2 24 5 18 2 -7 2 -21 0 -30z m-729 -8
c3 -16 1 -18 -9 -7 -7 6 -21 12 -31 12 -10 0 -18 5 -18 11 0 20 55 5 58 -16z
m-1650 -35 c7 -11 11 -20 9 -20 -2 0 -12 9 -22 20 -10 11 -14 20 -9 20 5 0 15
-9 22 -20z m1689 -22 c-3 -7 -5 -2 -5 12 0 14 2 19 5 13 2 -7 2 -19 0 -25z
m680 0 c-3 -7 -5 -2 -5 12 0 14 2 19 5 13 2 -7 2 -19 0 -25z m-730 -10 c-3 -7
-5 -2 -5 12 0 14 2 19 5 13 2 -7 2 -19 0 -25z m-1602 -27 c-6 -5 -25 10 -25
20 0 5 6 4 14 -3 8 -7 12 -15 11 -17z m1642 -13 c-3 -8 -6 -5 -6 6 -1 11 2 17
5 13 3 -3 4 -12 1 -19z m670 0 c-3 -8 -6 -5 -6 6 -1 11 2 17 5 13 3 -3 4 -12
1 -19z m-730 -45 c-3 -10 -5 -2 -5 17 0 19 2 27 5 18 2 -10 2 -26 0 -35z m720
-15 c-3 -7 -5 -2 -5 12 0 14 2 19 5 13 2 -7 2 -19 0 -25z m-680 -10 c-3 -7 -5
-2 -5 12 0 14 2 19 5 13 2 -7 2 -19 0 -25z m-10 -60 c-3 -7 -5 -2 -5 12 0 14
2 19 5 13 2 -7 2 -19 0 -25z m-66 -75 c-9 -16 -10 -15 -11 9 0 14 3 35 8 45 6
15 8 14 10 -9 2 -15 -1 -35 -7 -45z m56 25 c-3 -8 -6 -5 -6 6 -1 11 2 17 5 13
3 -3 4 -12 1 -19z m-1473 -27 c-5 -6 -34 20 -34 30 0 5 8 1 18 -8 10 -10 17
-20 16 -22z m1453 -33 c-3 -8 -6 -5 -6 6 -1 11 2 17 5 13 3 -3 4 -12 1 -19z
m580 -25 c-3 -10 -5 -4 -5 12 0 17 2 24 5 18 2 -7 2 -21 0 -30z m-1981 -5 l29
-33 -32 29 c-31 28 -38 36 -30 36 2 0 16 -15 33 -32z m2064 3 c0 -6 -4 -13
-10 -16 -5 -3 -10 1 -10 9 0 9 5 16 10 16 6 0 10 -4 10 -9z m-990 -41 c0 -5
-4 -10 -10 -10 -5 0 -10 5 -10 10 0 6 5 10 10 10 6 0 10 -4 10 -10z m887 -22
c-3 -7 -5 -2 -5 12 0 14 2 19 5 13 2 -7 2 -19 0 -25z m-1906 5 c13 -16 12 -17
-3 -4 -10 7 -18 15 -18 17 0 8 8 3 21 -13z m40 -40 c13 -16 12 -17 -3 -4 -10
7 -18 15 -18 17 0 8 8 3 21 -13z m1936 -5 c-3 -8 -6 -5 -6 6 -1 11 2 17 5 13
3 -3 4 -12 1 -19z m-1887 -28 c8 -5 11 -10 5 -10 -5 0 -17 5 -25 10 -8 5 -10
10 -5 10 6 0 17 -5 25 -10z m1880 -15 c0 -8 -4 -15 -10 -15 -5 0 -10 7 -10 15
0 8 5 15 10 15 6 0 10 -7 10 -15z m-1130 -25 c0 -5 -4 -10 -10 -10 -5 0 -10 5
-10 10 0 6 5 10 10 10 6 0 10 -4 10 -10z m-675 -10 c3 -6 -1 -7 -9 -4 -18 7
-21 14 -7 14 6 0 13 -4 16 -10z m635 -10 c-8 -5 -19 -10 -25 -10 -5 0 -3 5 5
10 8 5 20 10 25 10 6 0 3 -5 -5 -10z m-70 -30 c0 -5 -9 -10 -21 -10 -11 0 -17
5 -14 10 3 6 13 10 21 10 8 0 14 -4 14 -10z m1207 -22 c-3 -8 -6 -5 -6 6 -1
11 2 17 5 13 3 -3 4 -12 1 -19z m-1584 -35 c-7 -2 -19 -2 -25 0 -7 3 -2 5 12
5 14 0 19 -2 13 -5z m1574 -15 c-3 -8 -6 -5 -6 6 -1 11 2 17 5 13 3 -3 4 -12
1 -19z m-1324 -45 c-7 -2 -19 -2 -25 0 -7 3 -2 5 12 5 14 0 19 -2 13 -5z
m1102 -213 c3 -5 1 -10 -4 -10 -6 0 -11 5 -11 10 0 6 2 10 4 10 3 0 8 -4 11
-10z m102 -62 c-3 -8 -6 -5 -6 6 -1 11 2 17 5 13 3 -3 4 -12 1 -19z m-220 -54
c-3 -3 -12 -4 -19 -1 -8 3 -5 6 6 6 11 1 17 -2 13 -5z m-378 -77 c12 -17 23
-19 87 -15 62 3 70 1 51 -9 -12 -7 -43 -12 -68 -13 -38 0 -54 6 -87 33 -23 17
-41 36 -41 40 -1 12 43 -14 58 -36z m-279 13 c0 -5 -4 -10 -10 -10 -5 0 -10 5
-10 10 0 6 5 10 10 10 6 0 10 -4 10 -10z m540 0 c0 -5 -7 -10 -16 -10 -8 0
-12 5 -9 10 3 6 10 10 16 10 5 0 9 -4 9 -10z m-856 -91 c32 -17 50 -20 100
-15 34 3 52 3 41 0 -11 -2 -37 -10 -57 -16 -31 -9 -43 -8 -80 10 -47 23 -108
74 -108 92 0 7 15 -2 33 -19 18 -17 50 -40 71 -52z m809 74 c-7 -2 -21 -2 -30
0 -10 3 -4 5 12 5 17 0 24 -2 18 -5z m-563 -33 c0 -5 -5 -10 -11 -10 -5 0 -7
5 -4 10 3 6 8 10 11 10 2 0 4 -4 4 -10z m-60 -40 c0 -5 -4 -10 -10 -10 -5 0
-10 5 -10 10 0 6 5 10 10 10 6 0 10 -4 10 -10z m-775 -510 c-3 -5 -10 -10 -16
-10 -5 0 -9 5 -9 10 0 6 7 10 16 10 8 0 12 -4 9 -10z m-35 -10 c0 -5 -5 -10
-11 -10 -5 0 -7 5 -4 10 3 6 8 10 11 10 2 0 4 -4 4 -10z m-53 -56 c-3 -3 -12
-4 -19 -1 -8 3 -5 6 6 6 11 1 17 -2 13 -5z m-80 -50 c-3 -3 -12 -4 -19 -1 -8
3 -5 6 6 6 11 1 17 -2 13 -5z m-37 -14 c0 -5 -7 -10 -15 -10 -8 0 -15 5 -15
10 0 6 7 10 15 10 8 0 15 -4 15 -10z m-40 -10 c0 -5 -5 -10 -11 -10 -5 0 -7 5
-4 10 3 6 8 10 11 10 2 0 4 -4 4 -10z m-40 -30 c0 -5 -13 -10 -30 -10 -16 0
-30 5 -30 10 0 6 14 10 30 10 17 0 30 -4 30 -10z m-75 -10 c-3 -5 -13 -10 -21
-10 -8 0 -12 5 -9 10 3 6 13 10 21 10 8 0 12 -4 9 -10z m-57 -29 c3 -8 -5 -7
-22 4 -32 21 -33 27 -4 16 12 -4 24 -14 26 -20z m767 -131 c-3 -5 -10 -10 -16
-10 -5 0 -9 5 -9 10 0 6 7 10 16 10 8 0 12 -4 9 -10z m-178 -26 c-3 -3 -12 -4
-19 -1 -8 3 -5 6 6 6 11 1 17 -2 13 -5z m100 -10 c-3 -3 -12 -4 -19 -1 -8 3
-5 6 6 6 11 1 17 -2 13 -5z m-37 -14 c0 -5 -7 -10 -16 -10 -8 0 -12 5 -9 10 3
6 10 10 16 10 5 0 9 -4 9 -10z m-197 -27 c-7 -2 -19 -2 -25 0 -7 3 -2 5 12 5
14 0 19 -2 13 -5z m-108 -14 c11 -17 2 -18 -19 -3 -17 12 -17 14 -4 14 9 0 20
-5 23 -11z m55 1 c-20 -13 -40 -13 -40 0 0 6 12 10 28 10 21 0 24 -2 12 -10z
m830 6 c0 -3 -4 -8 -10 -11 -5 -3 -10 -1 -10 4 0 6 5 11 10 11 6 0 10 -2 10
-4z m230 -6 c0 -5 -2 -10 -4 -10 -3 0 -8 5 -11 10 -3 6 -1 10 4 10 6 0 11 -4
11 -10z m-890 -10 c0 -5 -16 -12 -35 -16 -19 -3 -38 -10 -41 -15 -7 -13 -64
-10 -97 4 -25 11 -19 12 52 12 51 0 85 5 93 13 14 14 28 16 28 2z m630 0 c0
-5 -5 -10 -11 -10 -5 0 -7 5 -4 10 3 6 8 10 11 10 2 0 4 -4 4 -10z m-53 -26
c-3 -3 -12 -4 -19 -1 -8 3 -5 6 6 6 11 1 17 -2 13 -5z m-37 -14 c0 -5 -5 -10
-11 -10 -5 0 -7 5 -4 10 3 6 8 10 11 10 2 0 4 -4 4 -10z m-53 -26 c-3 -3 -12
-4 -19 -1 -8 3 -5 6 6 6 11 1 17 -2 13 -5z m-37 -8 c0 -3 -4 -8 -10 -11 -5 -3
-10 -1 -10 4 0 6 5 11 10 11 6 0 10 -2 10 -4z m300 0 c0 -3 -4 -8 -10 -11 -5
-3 -10 -1 -10 4 0 6 5 11 10 11 6 0 10 -2 10 -4z m-585 -36 l120 -9 -144 5
c-79 2 -151 9 -160 14 -11 6 -3 7 24 4 22 -3 94 -9 160 -14z m245 10 c-8 -5
-40 -9 -70 -8 l-55 1 60 7 c33 4 65 7 70 8 6 1 3 -3 -5 -8z m245 -30 c3 -5 1
-10 -4 -10 -6 0 -11 5 -11 10 0 6 2 10 4 10 3 0 8 -4 11 -10z m-45 -24 c-14
-8 -28 -12 -32 -10 -3 2 -9 0 -13 -6 -7 -12 -55 -14 -55 -2 0 5 24 13 53 19
73 14 75 14 47 -1z m-145 -37 c-22 -4 -53 -7 -70 -7 -26 1 -24 2 10 8 22 4 54
7 70 7 25 1 23 -1 -10 -8z m-110 -19 c-3 -5 -24 -10 -46 -10 -24 0 -38 4 -34
10 3 6 24 10 46 10 24 0 38 -4 34 -10z"/>
</g>
</svg>
